<svg id="Warstwa_1" data-name="Warstwa 1" xmlns="http://www.w3.org/2000/svg" viewBox="0 0 723.84 654.71"><title>Obszar roboczy 81 kopia</title><path d="M629.14,219.14a36.76,36.76,0,0,0-12.31-11.54,36.37,36.37,0,0,0-14-4.58,38,38,0,0,0-4.16-.23,35.6,35.6,0,0,0-4.4.27c-.06-.14-.12-.28-.19-.42A36.4,36.4,0,0,0,579,208.11c0,.11.1.22.15.33A36.26,36.26,0,0,0,562.25,239c0,.22,0,.45,0,.67a36,36,0,0,0,5.17,18.19L490.19,377.23a1.1,1.1,0,0,1-1.85,0l-62.08-96a1.09,1.09,0,0,0-1.84,0l-62,95.9a1.09,1.09,0,0,1-1.84,0l-29.69-45.91L312.5,359.62l48.16,74.13a1.11,1.11,0,0,0,1.85,0L424.44,338a1.09,1.09,0,0,1,1.83,0l62.22,95.75a1.11,1.11,0,0,0,1.85,0L593,275a36.17,36.17,0,0,0,5.64.44,28.11,28.11,0,0,0,15.68-3.5c.86-.41,1.69-.84,2.51-1.31a36.29,36.29,0,0,0,18.29-31c0-.22,0-.46,0-.68A36.12,36.12,0,0,0,629.14,219.14Zm-266.75,20.1,29.4,45.45,18.35-28.37-47.75-73.83a1.09,1.09,0,0,0-1.84,0l-62,95.91a1.09,1.09,0,0,1-1.84,0l-62.15-96.09a1.09,1.09,0,0,0-1.84,0L129.76,341.48l-.12.18a36.87,36.87,0,0,0-5.59-.46,1.23,1.23,0,0,1,0-.19h-.17a36.28,36.28,0,0,0-15.51,3.45,1.24,1.24,0,0,0,0,.18c-.91.41-1.79.88-2.66,1.37a36.35,36.35,0,0,0-18.3,31.33c0,.33,0,.66,0,1l0,.89c0,.66.09,1.32.16,2s.12,1,.2,1.55c0,0,0,0,0,.07a36.15,36.15,0,0,0,5.64,14.79,36.56,36.56,0,0,0,35.24,16A23.79,23.79,0,0,0,143.76,408a36.28,36.28,0,0,0,16.54-30.44c0-.38,0-.75,0-1.13,0-.13,0-.27,0-.41,0-.33,0-.66-.06-1s-.06-.84-.1-1.26a.49.49,0,0,0,0-.12,36.3,36.3,0,0,0-4.93-14.7l.05-.09,78.27-121v-.38l.13.19,63.06,97.51a1.09,1.09,0,0,0,1.84,0l62-95.91A1.09,1.09,0,0,1,362.39,239.24Zm0-56.75a1.09,1.09,0,0,0-1.84,0l-62,95.91a1.09,1.09,0,0,1-1.84,0l-62.15-96.09a1.09,1.09,0,0,0-1.84,0L129.76,341.48a36.51,36.51,0,0,1,25.46,17.36l78.27-121v-.38l.13.19,63.06,97.51a1.09,1.09,0,0,0,1.84,0l62-95.91a1.09,1.09,0,0,1,1.84,0l29.4,45.45,18.35-28.37Z"/><path d="M363.3,536.11H39.15a37.92,37.92,0,0,1-38-37.85V86.73a29.25,29.25,0,0,1,29.3-29.2H232.16a20.19,20.19,0,0,1-20.23,20.15H30.47a9.07,9.07,0,0,0-9.08,9V498.26A17.72,17.72,0,0,0,39.15,516H363.3c127.63,0,231.47-113.65,231.47-253.34V220.87H615v41.74C615,413.42,502.08,536.11,363.3,536.11Z"/><path d="M681,536.11H492.86A20.19,20.19,0,0,1,513.08,516H681a22.63,22.63,0,0,0,22.67-22.59v-406A9.64,9.64,0,0,0,694,77.68H361.72C234.08,77.68,130.25,191.33,130.25,331v41.74H110V331c0-150.81,112.9-273.5,251.69-273.5H694a29.82,29.82,0,0,1,29.88,29.78V493.36A42.82,42.82,0,0,1,681,536.11Z"/><rect x="51.69" y="106.58" width="86.69" height="21.52" rx="7.47"/><path d="M127.59,136.73H62.48a19.4,19.4,0,1,1,0-38.79h65.11a19.4,19.4,0,1,1,0,38.79ZM62.48,115.21a2.12,2.12,0,1,0,0,4.24h65.11a2.12,2.12,0,0,0,0-4.24Z"/></svg>